<svg width="210" height="57" viewBox="0 0 210 57" fill="none" xmlns="http://www.w3.org/2000/svg">
<path d="M198.768 27.1332L210 57C206.689 56.5245 203.38 55.9297 200.009 55.3954L193.682 38.8904L187.18 54.0313C183.988 53.497 180.853 53.3172 177.661 52.9022L189.072 26.777L178.725 0H188.304L194.097 14.961L200.306 0H210L198.768 27.1332ZM171.158 0H162.467V51.775C165.305 51.953 168.261 52.0706 171.158 52.4268V0ZM154.958 51.1801C147.036 50.6459 139.113 50.1722 131.015 49.9923V0H139.881V41.5617C144.967 41.681 150.051 42.096 154.958 42.3328V51.1801ZM121.554 20.2466V29.1527H109.436V49.3993H100.685V0H125.516V8.90608H109.436V20.2466H121.554ZM85.7857 8.90608V49.8748C82.8296 49.8748 79.8151 49.8748 76.9175 49.9923V8.90608H67.7533V0H95.0085V8.90608H85.7857ZM58.1758 29.6264C54.2746 29.6264 49.6623 29.6264 46.3516 29.8063V43.047C51.5544 42.689 56.7572 42.2741 62.0185 42.096V50.6459L37.4835 52.6066V0H62.0185V8.90608H46.3516V20.8984C49.7811 20.8984 55.0424 20.7203 58.1758 20.7203V29.6264ZM9.04547 24.64V55.7516C5.85358 56.1096 3.01457 56.5245 0 57V0H8.45497L19.983 32.36V0H28.8512V53.3172C25.7178 53.8532 22.5259 54.0313 19.1549 54.505L9.04547 24.64Z" fill="#E50914"/>
</svg>
